# xmcd CD database file
#
# Track frame offsets:
#	150
#	12788
#	22671
#	44720
#	53426
#	69652
#	82781
#	96355
#	106976
#	136056
#	147351
#	182338
#	192027
#	218767
#	230052
#	253640
#	264216
#	277684
#	288632
#	315055
#
# Disc length: 4370 seconds
#
# Revision: 0
# Processed by: cddbd v1.5.2PL0 Copyright (c) Steve Scherf et al.
# Submitted via: CDex 1.70beta2
#
DISCID=01111014
DTITLE=john l. hooker and muddy waters - los dueños del blues
DYEAR=2006
DGENRE=Blues
TTITLE0=baby please don't go
TTITLE1=i'm leaving (baby)
TTITLE2=soon for gotten
TTITLE3=hobo blues
TTITLE4=corrina, corrina
TTITLE5=i want to hug you
TTITLE6=hoochie coochie man
TTITLE7=want ad blues
TTITLE8=howlin' blues
TTITLE9=hard haeded wohan
TTITLE10=floy'sguitar blues woman
TTITLE11=onions
TTITLE12=caldonia
TTITLE13=what do you say
TTITLE14=screamin' and cryin'
TTITLE15=keep your hands to yourself
TTITLE16=i got my mojo working
TTITLE17=send me your pillow
TTITLE18=garbage man
TTITLE19=she shot me down
EXTD=YEAR: 2006
EXTT0=
EXTT1=
EXTT2=
EXTT3=
EXTT4=
EXTT5=
EXTT6=
EXTT7=
EXTT8=
EXTT9=
EXTT10=
EXTT11=
EXTT12=
EXTT13=
EXTT14=
EXTT15=
EXTT16=
EXTT17=
EXTT18=
EXTT19=
PLAYORDER=
